<?xml version="1.0" ?><!DOCTYPE svg  PUBLIC '-//W3C//DTD SVG 1.1//EN'  'http://www.w3.org/Graphics/SVG/1.1/DTD/svg11.dtd'><svg height="8.4666mm" style="shape-rendering:geometricPrecision; text-rendering:geometricPrecision; image-rendering:optimizeQuality; fill-rule:evenodd; clip-rule:evenodd" version="1.1" viewBox="0 0 847 847" width="8.4666mm" xml:space="preserve" xmlns="http://www.w3.org/2000/svg" xmlns:xlink="http://www.w3.org/1999/xlink"><defs><style type="text/css">
   <![CDATA[
    .fil0 {fill:black;fill-rule:nonzero;fill-opacity:0.501961}
   ]]>
  </style></defs><g id="Layer_x0020_1"><path class="fil0" d="M423 40c106,0 202,43 271,112 70,70 113,166 113,271 0,106 -43,202 -113,271 -69,70 -165,113 -271,113 -106,0 -201,-43 -271,-113 -69,-69 -112,-165 -112,-271 0,-105 43,-201 112,-271 70,-69 165,-112 271,-112zm247 136c-63,-63 -150,-102 -247,-102 -96,0 -184,39 -247,102 -63,63 -102,151 -102,247 0,97 39,184 102,247 63,64 151,103 247,103 97,0 184,-39 247,-103 64,-63 103,-150 103,-247 0,-96 -39,-184 -103,-247zm-419 153l0 -140c0,-9 8,-17 17,-17l310 0c10,0 17,8 17,17l0 140 51 0c17,0 32,7 43,17 12,11 19,26 19,43l0 121c0,17 -7,32 -19,43 -11,10 -26,17 -43,17l-51 0 0 88c0,9 -7,16 -17,16l-310 0c-9,0 -17,-7 -17,-16l0 -88 -51 0c-17,0 -32,-7 -43,-17 -11,-11 -18,-26 -18,-42l0 -122c0,-17 7,-32 18,-43 11,-10 27,-17 44,-17l50 0zm34 -123l0 123 276 0 0 -123 -276 0zm310 313l0 17 51 0c8,0 15,-3 20,-8 5,-4 8,-11 8,-18l0 -121c0,-7 -3,-14 -8,-18 -5,-5 -12,-8 -20,-8l-445 0c-8,0 -16,3 -21,8 -4,4 -8,11 -8,18l0 122c0,6 4,13 8,17 5,5 12,8 20,8l51 0 0 -17c0,-9 8,-17 17,-17l310 0c10,0 17,8 17,17zm-34 122l0 -105 -276 0 0 105 276 0zm-338 -210c-9,0 -17,-8 -17,-17 0,-9 8,-17 17,-17l400 0c10,0 17,8 17,17 0,9 -7,17 -17,17l-400 0z"/></g></svg>